<svg xmlns="http://www.w3.org/2000/svg" version="1.1" xmlns:xlink="http://www.w3.org/1999/xlink" xmlns:svgjs="http://svgjs.dev/svgjs" width="598.7258" height="598.7258"><svg xmlns="http://www.w3.org/2000/svg" viewBox="0 0 598.7258 598.7258">
  <defs>
    <style>
      .cls-1 {
        fill: #fff;
      }
    </style>
  </defs>
  <g id="SvgjsG1003" data-name="Layer 2">
    <circle cx="299.3629" cy="299.3629" r="299.3629"></circle>
  </g>
  <g id="SvgjsG1002" data-name="Layer 1">
    <path class="cls-1" d="M507.097,178.4908l-198.32-114.3131c-5.2073-2.8176-11.6184-2.8176-16.8271,0l-197.518,114.3131c-1.2019.805-2.0032,2.0124-2.0032,3.6226v24.5531c0,1.61.8013,2.8176,2.0032,3.6226l337.3438,196.0226-40.0639,23.3455L98.4383,259.3952c-1.2019-.8046-2.8045-.8046-4.4071,0-1.2019.8046-2.0032,2.0129-2.0032,3.622v49.9123c0,1.6091.8013,2.8174,2.0032,3.622l245.9968,142.4898-40.0639,23.3455-201.9264-117.1314c-2.0032-1.2069-4.8078-.4023-6.0097,1.6106-.4006.8046-.4006,1.2069-.4006,2.0129v49.9108c0,1.6106.8013,2.8174,2.4039,3.622l197.5193,114.314c5.2073,2.8174,11.6184,2.8174,16.8271,0l197.9192-114.314c1.2009-.8045,2.0025-2.0114,2.0025-3.622v-24.9561c0-1.6091-.8016-2.8174-2.0025-3.622L168.5514,194.1887l40.8661-23.7481,292.4723,169.8587c2.0024,1.2083,4.808.4038,6.0088-1.6091.4008-.8045.4008-1.2083.4008-2.0129v-49.9108c0-1.6106-.8016-2.8174-2.0025-3.6235l-244.7951-142.0859,38.8615-22.5405,201.9271,117.1308c2.0025,1.2068,4.8065.4023,6.0089-1.6106.4008-.8046.4008-1.2068.4008-2.0129v-49.9106c.4008-1.6102-.4008-2.8176-1.6031-3.6226Z"></path>
  </g>
</svg><style>@media (prefers-color-scheme: light) { :root { filter: none; } }
@media (prefers-color-scheme: dark) { :root { filter: none; } }
</style></svg>